<svg xmlns="http://www.w3.org/2000/svg" width="80" height="71.243"><g transform="matrix(.8 0 0 .8 -140.56 -340.677)" fill="#61dafb"><path d="M275.7 470.383c0-6.624-8.296-12.902-21.015-16.796 2.935-12.963 1.63-23.277-4.117-26.58-1.325-.774-2.875-1.14-4.566-1.14v4.545c.937 0 1.691.183 2.323.53 2.772 1.59 3.975 7.643 3.037 15.43-.224 1.916-.59 3.934-1.04 5.992-3.994-.978-8.356-1.732-12.942-2.221-2.752-3.771-5.606-7.196-8.48-10.192 6.645-6.176 12.882-9.56 17.122-9.56v-4.545c-5.605 0-12.943 3.995-20.363 10.925-7.42-6.89-14.757-10.844-20.363-10.844v4.546c4.22 0 10.477 3.363 17.122 9.498A96.275 96.275 0 0 0 214 450.143c-4.607.489-8.969 1.243-12.964 2.242a61.492 61.492 0 0 1-1.06-5.911c-.958-7.787.225-13.84 2.976-15.45.612-.368 1.407-.53 2.344-.53v-4.546c-1.712 0-3.26.367-4.606 1.141-5.728 3.302-7.012 13.596-4.056 26.519-12.679 3.913-20.934 10.17-20.934 16.775 0 6.625 8.296 12.903 21.015 16.796-2.935 12.964-1.63 23.277 4.117 26.58 1.325.774 2.875 1.141 4.587 1.141 5.605 0 12.943-3.995 20.363-10.925 7.419 6.89 14.757 10.843 20.362 10.843 1.713 0 3.262-.366 4.607-1.141 5.728-3.302 7.012-13.596 4.056-26.519 12.638-3.893 20.893-10.17 20.893-16.775zm-26.539-13.596c-.754 2.63-1.692 5.34-2.752 8.052a96.471 96.471 0 0 0-2.67-4.892 110.39 110.39 0 0 0-2.935-4.77c2.894.428 5.687.958 8.357 1.61zm-9.335 21.709c-1.59 2.751-3.221 5.36-4.913 7.786a106.06 106.06 0 0 1-9.213.408c-3.078 0-6.156-.143-9.172-.388a112.36 112.36 0 0 1-4.933-7.745 106.174 106.174 0 0 1-4.24-8.113 106.29 106.29 0 0 1 4.22-8.133c1.59-2.751 3.22-5.36 4.912-7.786a106.06 106.06 0 0 1 9.213-.408c3.078 0 6.156.143 9.172.388a112.36 112.36 0 0 1 4.933 7.745c1.55 2.67 2.956 5.381 4.24 8.113a114.126 114.126 0 0 1-4.22 8.133zm6.583-2.65a87.354 87.354 0 0 1 2.813 8.112 91.48 91.48 0 0 1-8.398 1.631c1-1.57 1.998-3.18 2.936-4.83a118.117 118.117 0 0 0 2.65-4.913zm-20.668 21.749a84.031 84.031 0 0 1-5.667-6.523c1.835.082 3.71.143 5.606.143 1.916 0 3.811-.041 5.666-.143a79.562 79.562 0 0 1-5.605 6.523zm-15.165-12.006a91.975 91.975 0 0 1-8.357-1.61c.754-2.63 1.691-5.34 2.751-8.052a96.46 96.46 0 0 0 2.67 4.892c.958 1.63 1.937 3.22 2.936 4.77zm15.063-42.417a84.031 84.031 0 0 1 5.666 6.522 126.23 126.23 0 0 0-5.605-.143c-1.916 0-3.812.041-5.667.143a79.562 79.562 0 0 1 5.606-6.522zm-15.084 12.005a112.607 112.607 0 0 0-5.585 9.723 87.354 87.354 0 0 1-2.813-8.113 98.995 98.995 0 0 1 8.398-1.61zm-18.447 25.52c-7.215-3.078-11.883-7.114-11.883-10.314s4.668-7.256 11.883-10.314c1.753-.754 3.67-1.427 5.647-2.059 1.161 3.996 2.69 8.154 4.586 12.414-1.875 4.24-3.384 8.377-4.525 12.352a61.92 61.92 0 0 1-5.708-2.079zm10.967 29.128c-2.772-1.59-3.975-7.644-3.037-15.43.224-1.917.59-3.934 1.04-5.993 3.994.978 8.356 1.732 12.942 2.222 2.752 3.77 5.606 7.195 8.48 10.191-6.645 6.176-12.882 9.56-17.122 9.56-.917-.02-1.692-.204-2.303-.55zm48.349-15.532c.958 7.786-.225 13.84-2.976 15.45-.612.367-1.407.53-2.344.53-4.22 0-10.477-3.363-17.122-9.499a96.275 96.275 0 0 0 8.418-10.17c4.607-.49 8.969-1.244 12.964-2.243.468 2.059.835 4.036 1.06 5.932zm7.847-13.596c-1.753.754-3.669 1.427-5.646 2.059-1.162-3.995-2.69-8.154-4.586-12.414 1.875-4.24 3.383-8.377 4.525-12.352a64.648 64.648 0 0 1 5.728 2.08c7.215 3.077 11.883 7.113 11.883 10.313-.02 3.2-4.688 7.257-11.904 10.314zm-53.995-54.77z"/><circle cx="225.68" cy="470.383" r="9.315"/></g></svg>